<?xml version="1.0" encoding="UTF-8"?>
<svg enable-background="new 0 0 402.75 326.25" viewBox="0 0 402.75 326.25" xmlns="http://www.w3.org/2000/svg">
 <path d="m8.25,201.75 271.5-3.75-10.5,31.5h-.75v1.5h-.75l-.75,1.5-.75.75-.75,1.5v.75l-.75.75v.75l-1.5,1.5v.75l-.75,1.5-.75.75v.75l-.75.75-.75,1.5-.75.75v.75l-.75,1.5-.75.75-.75,1.5-.75.75-.75,1.5-.75.75-.75.75-.75,1.5-.75.75-.75,1.5-.75.75-.75,1.5-3,3-.75,1.5-3,3-.75,1.5-.75.75-1.5.75-.75,1.5-3,3-.75,1.5-1.5.75-.75.75-1.5.75-.75,1.5-.75.75-1.5.75-.75.75-1.5.75-.75.75-1.5.75-.75.75-1.5.75-1.5,1.5-1.5.75-.75.75h-.75l-1.5.75-1.5,1.5h-.75l-2.25,2.25h-.75l-.75.75h-.75l-.75.75-3,1.5h-.75l-1.5.75-1.5,1.5h-1.5l-.75.75h-1.5l-1.5.75h-1.5l-.75.75 1.5,12.75h-1.5l-.75.75h-.75l-.75.75h-1.5l-.75.75h-1.5l-1.5.75h-1.5l-1.5.75h-1.5l-.75.75h-1.5l-.75.75h-3l-1.5.75h-.75l-.75.75h-3.75l-1.5.75h-2.25l-.75.75h-3.75l-1.5.75h-8.25l-.75.75h-7.5l-.75-.75h-9l-.75-.75h-6l-1.5-.75h-1.5l-.75-.75h-3.75l-.75-.75h-3l-1.5-.75h-3l-.75-.75h-.75l-1.5-.75h-3l-.75-.75h-2.25l-1.5-.75h-1.5l-1.5-.75h-.75l-1.5-.75h-.75l-.75-.75h-1.5v-10.5l-33.75-24-.75-.75h-.75l-10.5-10.5-1.5-2.25-1.5-.75-.75-1.5-.75-.75-1.5-.75v-.75l-1.5-.75v-1.5l-1.5-.75v-.75l-1.5-.75-.75-.75-.75-1.5-2.25-2.25-.75-1.5-.75-.75-.75-1.5-.75-.75v-.75l-.75-1.5-.75-.75-.75-1.5-1.5-1.5-.75-1.5-.75-.75v-.75l-.75-1.5-.75-.75v-1.5l-1.5-1.5v-1.5l-.75-.75v-1.5l-1.5-1.5v-1.5l-.75-.75v-.75l-.75-.75v-.75l-.75-.75v-.75l-.75-.75v-1.5l-.75-.75v-.75l-.75-1.5-.75-.75-.75-1.5v-1.5l-.75-1.5v-.75l-1.5-1.5v-1.5l-.75-.75v-.75l-.75-.75v-1.5l-.75-.75v-.75h-.75z" fill="#ed1c24" fill-rule="evenodd"/>
 <path d="m57,129h-.75l-.75.75h-1.5l-1.5.75h-1.5l-1.5.75h-.75l-.75.75h-2.25l-1.5,1.5h-1.5l-.75.75h-.75l-1.5.75-.75.75h-.75l-1.5.75-.75.75-1.5.75-.75.75h-1.5l-.75.75-1.5.75-.75.75-3,1.5-.75,1.5-.75.75-1.5.75-.75.75-1.5.75-.75,1.5-1.5.75-3,3-.75,1.5-.75.75-.75,1.5-1.5.75-1.5,3-.75.75-3.75,7.5v1.5l-1.5,3v2.25l-.75,1.5v7.5l.75,1.5v2.25l1.5,3v1.5l1.5,1.5v1.5l1.5,1.5 2.25,4.5 3,3 .75,1.5 1.5.75 .75,1.5 4.5,4.5 1.5.75 3,3 1.5.75 4.5,4.5 3,1.5 1.5,1.5 2.25.75 2.25,2.25 1.5.75 2.25,1.5 1.5.75 .75.75 7.5,3.75 .75.75 1.5.75 .75.75h1.5l.75.75 1.5.75h.75l.75.75h.75l1.5.75 .75.75h1.5l.75.75h1.5l.75.75h2.25l.75.75h1.5l1.5.75h.75l1.5.75h.75l1.5.75h3.75l3,1.5h3.75l1.5.75h2.25l2.25.75h2.25l1.5.75h2.25l2.25.75h2.25l2.25.75h5.25l2.25.75h5.25l2.25.75h13.5l3,.75h9l3-.75h12l3-.75h3l3-.75h3.75l3-.75h3l3-.75 3.75-.75 6-1.5 3.75-.75 9-2.25 2.25-.75 6-1.5 2.25-.75 3-.75 15.75-5.25 1.5-.75 2.25-.75 1.5-.75 1.5-1.5 1.5-.75 2.25-.75 3-1.5 .75-.75 4.5-2.25 .75-.75 1.5-.75 .75-.75 1.5-.75 3.75-3.75h.75l1.5-1.5 1.5-.75 .75-1.5 .75-.75 .75-1.5 2.25-2.25v-.75h.75v-1.5l.75-.75v-.75l.75-1.5v-.75l.75-1.5v-1.5l.75-1.5v-2.25l.75-.75v-3.75l.75-.75v-9l-.75-1.5v-3.75l-.75-.75v-2.25l-.75-1.5v-.75l-.75-1.5v-.75l-.75-1.5-.75-.75-.75-1.5-.75-.75v-1.5l-3-3-.75-1.5-.75-.75-.75-1.5-1.5-.75-.75-.75v-.75h-.75v-.75l-.75-1.5-1.5-.75-.75-1.5-3-3-1.5-.75-.75-.75-1.5-.75-.75-.75-1.5-.75-.75-.75-3-1.5h-.75l-1.5-.75h-.75l-.75-.75h-1.5l-.75-.75h-2.25l-.75-.75h-3l-1.5-.75h-1.5z" fill="#f48072" fill-rule="evenodd"/>
 <path d="m15.75,207.75 .75-12 5.25-9.75-.75-12 2.25-10.5 17.25-12 12-3 3.75-10.5v-.75l.75-.75v-2.25l.75-.75v-.75l.75-1.5v-1.5l.75-.75v-2.25h.75v-4.5-.75-5.25h.75l18.75-5.25 20.25-.75 10.5-9 8.25-6.75 10.5-.75 5.25,1.5 9.75,3 13.5-6 16.5,2.25 7.5,9.75 4.5,8.25 21.75,9 24,9 7.5,6.75 6,9.75-3.75,12 12.75,3.75 8.25,19.5v17.25l9.75,8.25-1.5,3-1.5,1.5-.75,1.5-1.5,1.5h-.75l-7.5,7.5-3,1.5-.75.75-4.5,2.25-1.5,1.5-2.25.75-3,1.5-2.25.75-1.5.75-2.25.75-1.5,1.5-2.25.75-3,.75-9,3-3,.75-3,1.5-3,.75-2.25.75-3.75.75-6,1.5-3.75.75-3,.75-3.75.75h-3.75l-11.25,2.25h-3.75l-4.5.75h-3.75l-3.75.75h-3.75l-3.75.75h-21l-3-.75h-6.75l-3-.75h-3l-3.75-.75h-2.25l-3-.75h-3l-6-1.5h-2.25l-2.25-.75-3-.75-4.5-1.5-3-.75-4.5-1.5h-1.5l-6.75-2.25-1.5-.75-2.25-.75-3-1.5-2.25-.75-6-3-.75-.75-3-1.5h-.75l-1.5-.75-.75-.75h-.75l-1.5-1.5-1.5-.75h-.75l-1.5-1.5h-.75z" fill="#fff" fill-rule="evenodd"/>
 <path d="m60,133.5h-1.5l-.75.75h-1.5l-1.5.75h-1.5l-.75.75h-2.25l-.75.75h-.75l-1.5.75h-.75l-1.5.75h-.75l-1.5.75-.75.75h-1.5l-.75.75-1.5.75h-1.5l-.75.75-1.5.75-.75.75-1.5.75-1.5.75-.75.75-3,1.5-.75.75-1.5.75-.75,1.5-1.5.75-.75.75-1.5.75-.75,1.5-1.5.75-.75,1.5-.75.75-.75,1.5-2.25,2.25-1.5,3-.75.75-1.5,3v1.5l-.75,1.5v1.5l-.75,1.5v2.25l-.75,1.5v8.25l.75,2.25v1.5l.75,1.5 .75,2.25 2.25,4.5 1.5,2.25 .75,1.5 1.5,1.5 .75,1.5 5.25,5.25 1.5.75 3,3 4.5,3 1.5,1.5 6.75,4.5 2.25.75 3,1.5 2.25,1.5 2.25.75 2.25,1.5 3,1.5 3,.75 2.25,1.5 3,.75 2.25.75 3,1.5 6,1.5 3,1.5 21,5.25 3.75.75 3,.75h3l3,.75h3l3.75.75 3,.75h6.75l3,.75h6l3.75.75h18.75l3-.75h5.25l3-.75h5.25l3-.75h3l2.25-.75h3l2.25-.75 3-.75h2.25l2.25-.75 3-.75h2.25l6.75-2.25 3-.75h2.25l9-3 1.5-.75 6.75-2.25 1.5-.75 2.25-.75 1.5-.75 2.25-.75 1.5-.75 2.25-1.5 6-3 2.25-.75 2.25-2.25 3-1.5 1.5-1.5 3-1.5 .75-.75 1.5-.75 .75-1.5 .75-.75 1.5-.75 .75-1.5 .75-.75 1.5-.75 1.5-1.5 .75-1.5 .75-.75v-.75l2.25-2.25v-.75l.75-1.5 .75-.75v-2.25h.75v-3l.75-.75v-1.5l.75-1.5v-8.25l-.75-1.5v-3.75l-.75-.75v-1.5l-.75-1.5v-.75l-.75-.75v-1.5l-.75-.75v-.75l-1.5-.75v-.75l5.25-4.5h.75v.75l.75.75 1.5,3v.75l.75.75v.75l.75,1.5v.75l.75.75v1.5l.75.75v2.25l.75,1.5v6.75l.75.75-.75.75v7.5l-.75,1.5v1.5l-.75.75v2.25l-1.5,3-.75.75-1.5,3-.75.75-3,6-1.5.75-1.5,1.5-.75,1.5-1.5.75-5.25,5.25h-.75l-1.5,1.5-1.5.75-.75.75h-.75l-.75,1.5h-1.5l-1.5,1.5-1.5.75-.75.75-1.5.75h-.75l-.75.75-1.5.75h-.75l-.75.75h-.75l-.75.75h-.75l-1.5,1.5h-1.5l-.75.75h-.75l-.75.75h-1.5l-.75.75h-.75l-.75.75h-1.5l-.75.75h-.75l-1.5.75h-.75l-.75.75h-1.5l-.75.75h-.75l-1.5.75h-1.5l-.75.75h-.75l-1.5.75h-.75l-1.5.75h-1.5l-.75.75h-2.25l-1.5.75h-.75l-1.5.75h-3l-.75.75h-1.5l-.75.75h-3l-1.5.75h-2.25l-1.5.75h-1.5l-1.5.75h-3.75l-1.5.75h-1.5l-1.5.75h-4.5l-1.5.75h-6l-3,.75h-9l-3,.75h-22.5l-3-.75h-8.25l-3-.75h-2.25l-3-.75h-5.25l-2.25-.75h-3l-2.25-.75h-2.25l-3-.75-4.5-1.5h-3l-4.5-1.5-3-.75-2.25-.75h-2.25l-2.25-1.5h-2.25l-9-3-1.5-1.5-6.75-2.25-1.5-.75-4.5-1.5-1.5-.75-2.25-1.5-1.5-.75-2.25-.75-3-1.5-2.25-.75-1.5-1.5-1.5-.75-2.25-1.5-4.5-2.25-1.5-1.5-1.5-.75-.75-.75-1.5-.75-.75-1.5-.75-.75-1.5-.75-3.75-3.75-.75-1.5-5.25-5.25-.75-1.5-1.5-1.5-3-6-.75-.75-1.5-3v-1.5l-.75-1.5-.75-2.25v-3.75l-.75-1.5v-6.75l.75-1.5v-3l.75-1.5v-1.5l.75-1.5v-1.5l2.25-4.5 1.5-.75v-1.5l1.5-1.5 2.25-4.5 1.5-1.5 1.5-.75 .75-1.5 5.25-5.25 2.25-.75 3-3 1.5-.75 2.25-1.5 1.5-.75 2.25-1.5 1.5-.75 2.25-.75 2.25-1.5 15.75-5.25 3-.75 2.25-.75h3z" fill="#010101" fill-rule="evenodd"/>
 <path d="m180.75,207.75 1.5,2.25 1.5,3.75 3.75.75 106.5-57.75 105-60.75v-10.5l-8.25-2.25z" fill="#ffcb05" fill-rule="evenodd"/>
 <path d="m240.75,144 .75.75h.75l.75.75h1.5l.75.75h.75l.75.75h.75l.75.75 1.5.75h.75l1.5,1.5h.75l1.5.75 .75,1.5h1.5l.75.75 1.5.75 .75,1.5 1.5.75 .75.75 1.5.75 .75,1.5 6-3v-.75l-1.5-1.5-1.5-.75-4.5-4.5-1.5-.75-1.5-1.5-3-1.5-.75-.75-3-1.5-.75-.75h-.75l-.75-.75h-.75l-.75-.75h-.75l-.75-.75h-.75l-.75-.75h-.75l-.75-.75h-1.5l-.75-.75h-1.5l-.75-.75z" fill="#010101" fill-rule="evenodd"/>
 <path d="m147.75,185.25 129-182.25 10.5,3 .75,7.5-130.5,177.75-1.5-.75-3.75-2.25z" fill="#ffcb05" fill-rule="evenodd"/>
 <path d="m24,182.25-.75-.75v-.75l-.75-1.5v-4.5l.75-1.5v-1.5l.75-.75v-.75l.75-.75v-.75l1.5-1.5 .75-1.5 1.5-.75 1.5-1.5 1.5-.75 .75-1.5 .75-.75 3-1.5 .75-.75 1.5-.75 1.5-.75h.75l.75-.75 3-1.5h.75l1.5-.75h.75l1.5-.75h.75l.75-.75h.75l1.5-.75h1.5v-.75h1.5l.75-.75h1.5v-1.5l-.75-.75v-3.75l.75-1.5v-2.25l1.5-1.5 .75-1.5 .75-.75 .75-1.5v-.75l.75-1.5v-7.5l.75-.75v-2.25l1.5-1.5 .75-1.5v-.75l.75-.75h.75l.75-.75 1.5-.75h1.5l.75-.75h18.75l1.5-.75h2.25l1.5-.75h2.25l1.5-.75h1.5l1.5-.75h1.5v-1.5l.75-.75v-1.5l.75-1.5v-.75l.75-.75v-.75h-1.5l-1.5.75h-.75l-1.5.75h-2.25l-.75.75h-3l-.75.75h-5.25l-.75.75h-18.75l-3,1.5h-1.5l-.75.75-1.5.75-3.75,3.75v.75l-.75.75v.75l-.75.75v2.25l-.75.75v8.25l-.75,1.5v.75l-.75.75v.75l-.75.75v.75l-1.5,1.5v1.5l-.75.75v.75l-.75.75v5.25h-2.25l-.75.75h-1.5l-.75.75h-.75l-.75.75h-1.5l-.75.75h-.75l-.75.75h-1.5l-.75.75h-.75l-1.5,1.5h-.75l-.75.75-1.5.75-.75.75h-1.5l-3,3h-.75l-6,6-.75,1.5-.75.75-.75,1.5-.75.75-.75,1.5-.75.75v.75l-.75,1.5v8.25l.75,1.5v1.5l.75,1.5 .75.75v.75l.75.75v.75z" fill="#010101" fill-rule="evenodd"/>
 <path d="m106.5,118.5v-1.5l.75-.75v-2.25l1.5-3v-1.5l.75-.75v-.75l.75-.75v-.75l1.5-1.5 .75-2.25 1.5-.75 2.25-2.25h.75l.75-.75h.75l.75-.75h1.5l.75-.75h6.75l.75.75h2.25l.75.75h1.5l3,1.5 .75.75 1.5.75 1.5,1.5 .75-.75h.75l.75-.75 1.5-.75h.75l2.25-.75 .75-.75 1.5-.75h.75l.75-.75h1.5l.75-.75h3l1.5-.75h7.5l1.5.75 .75.75h1.5l.75.75 1.5.75h.75l.75,1.5h.75l.75,1.5 .75.75 1.5.75v1.5l.75.75v.75l1.5,1.5 .75,1.5 .75.75 1.5.75 .75.75h.75l1.5,1.5 1.5.75h.75l1.5,1.5h2.25l.75.75h6l.75-.75h.75l2.25-6h-2.25l-.75.75h-3.75l-1.5-.75-.75-.75h-.75l-1.5-.75h-.75l-.75-.75-1.5-.75-.75-.75-1.5-.75-.75-.75-1.5-3-3-3-.75-1.5-1.5-.75-.75-1.5-3-1.5-.75-.75-4.5-2.25h-1.5l-1.5-.75h-8.25l-1.5.75h-3l-.75.75h-1.5l-1.5.75-.75.75h-1.5l-1.5.75h-.75l-.75.75h-.75l-.75.75v.75l-.75-.75h-.75l-.75-.75h-.75l-.75-.75-1.5-.75h-1.5l-.75-.75h-.75l-.75-.75h-12.75l-1.5.75h-.75l-1.5.75h-.75l-1.5.75-.75.75h-1.5l-.75.75-.75,1.5-5.25,5.25-.75,1.5v.75l-.75.75-.75,1.5v.75l-.75.75v.75l-.75,1.5v2.25l-.75.75v4.5z" fill="#010101" fill-rule="evenodd"/>
 <path d="m205.5,121.5 2.25,2.25h.75l1.5,1.5h.75l1.5.75 2.25,2.25h1.5l.75.75h.75l.75.75h2.25l.75.75h2.25l.75.75h1.5l1.5.75h.75l1.5.75h.75l1.5.75 .75.75h.75l4.5,4.5v2.25l1.5,1.5v1.5l.75,1.5v5.25l-.75,1.5v.75l-1.5,1.5v1.5l-.75.75v.75l-.75,1.5v.75l.75.75v1.5l.75.75h1.5l1.5.75h7.5l1.5.75v.75h.75l.75,1.5 6-3.75h-.75l-3-3-1.5-.75-.75-.75-1.5-.75h-5.25l-.75-.75v-.75l.75-.75 .75-1.5 .75-.75v-9.75l-.75-.75v-.75l-.75-1.5v-1.5l-2.25-4.5-4.5-4.5-1.5-.75-1.5-1.5-1.5-.75h-.75l-.75-.75h-2.25l-.75-.75h-2.25l-.75-.75h-1.5l-.75-.75h-2.25l-.75-.75h-.75l-.75-.75h-.75l-1.5-.75h-.75l-.75-.75-1.5-.75-.75-.75v-.75l-1.5-.75-.75-1.5z" fill="#010101" fill-rule="evenodd"/>
 <path d="m257.25,175.5 .75.75v.75l.75.75v.75l.75.75v2.25l.75,1.5v10.5l-.75.75v6.75 .75l.75.75v1.5l3,1.5 .75.75 1.5.75 1.5,1.5 1.5.75v.75l.75.75 1.5,3 5.25-2.25v-1.5l-.75-1.5v-.75l-1.5-1.5v-.75l-1.5-.75-.75-.75-.75-1.5-3-1.5-1.5-1.5-.75-1.5v-.75l.75-1.5v-4.5l.75-.75v-4.5l-.75-1.5v-5.25l-.75-.75v-2.25l-.75-.75v-.75l-1.5-1.5v-.75z" fill="#010101" fill-rule="evenodd"/>
 <path d="m60,204v-.75h.75l2.25-2.25h.75l.75-.75h.75l.75-.75h2.25l.75.75h.75l1.5.75h.75l5.25,5.25v.75l.75.75v1.5l.75.75v.75l6-1.5v-1.5l-.75-.75v-1.5l-.75-1.5-.75-.75v-1.5l-3.75-3.75-.75-1.5-6-3h-8.25l-.75.75h-1.5l-1.5,1.5-3,1.5-.75,1.5-1.5,1.5v.75l-.75.75z" fill="#010101" fill-rule="evenodd"/>
 <path d="m91.5,160.5v-.75l-.75-.75v-.75l-.75-1.5v-.75l3.75-3.75h9l.75.75 3-5.25h-.75l-.75-.75h-.75l-.75-.75h-1.5-.75l-1.5-.75h-5.25l-.75.75h-.75l-1.5.75h-1.5l-1.5,1.5-1.5.75-1.5,1.5-1.5,3v6.75l.75,1.5v.75l2.25,2.25z" fill="#010101" fill-rule="evenodd"/>
 <path d="m158.25,138.75-.75-.75h-3.75l-1.5-.75-.75.75h-1.5l-.75.75h-.75l-.75.75-.75,1.5-1.5,1.5v2.25l-.75.75v.75l.75.75v3l.75.75v.75 .75h-6l-.75-1.5v-3.75l-.75-1.5v-2.25l.75-1.5v-1.5l.75-.75 .75-1.5 .75-.75 .75-1.5 2.25-2.25 3-1.5h.75l1.5-.75h6l1.5.75h.75l3,1.5h1.5z" fill="#010101" fill-rule="evenodd"/>
 <path d="m142.5,228.75 .75-.75v-.75h.75l.75-.75h.75l.75-.75h1.5l.75-.75h1.5l.75-.75h6l1.5.75h1.5l1.5,1.5 1.5.75v1.5l1.5,1.5v.75h.75v1.5 .75h.75l6.75-.75h-.75v-3l-.75-.75-.75-1.5v-.75l-2.25-2.25-.75-1.5-1.5-.75-2.25-2.25h-.75l-1.5-.75h-.75l-1.5-.75h-.75l-.75-.75h-8.25l-1.5.75h-1.5l-.75.75h-1.5l-.75.75h-.75l-1.5.75v.75h-.75l-1.5.75-.75.75-1.5.75-.75.75v.75l-.75.75z" fill="#010101" fill-rule="evenodd"/>
 <path d="m216,168.75 3.75,3.75v.75l1.5,1.5 .75,1.5 .75.75 .75,1.5v1.5l.75,1.5v.75h.75l1.5-.75 1.5-1.5 1.5-.75h.75v-.75l-.75-1.5v-.75l-.75-.75v-.75l-.75-1.5-.75-.75-.75-1.5-.75-.75-1.5-3-1.5-.75-.75-1.5-1.5-.75z" fill="#010101" fill-rule="evenodd"/>
 <path d="m181.5,209.25 210-122.25 .75.75h.75l.75,1.5 .75.75 .75,1.5v3l-211.5,119.25 4.5,5.25 213.75-120.75 .75-.75v-4.5l-.75-1.5v-1.5l-.75-1.5v-.75l-.75-.75v-.75l-.75-.75-.75-1.5-1.5-1.5-.75-.75h-.75l-1.5-1.5h-.75l-.75-.75h-.75l-.75-.75-213.75,125.25z" fill="#010101" fill-rule="evenodd"/>
 <path d="m12,201v.75l.75.75v1.5l.75,1.5 .75.75v1.5l.75.75v.75l.75.75v.75l.75,1.5v.75l.75,1.5 .75.75 .75,1.5v.75l.75,1.5 .75.75 1.5,3v1.5l.75,1.5 .75.75 1.5,3 .75,1.5 1.5,3 1.5.75 3.75,7.5 1.5,1.5 1.5,3 1.5,1.5 1.5,3 2.25,2.25 .75,1.5 3,3 .75,1.5 3.75,3.75 .75,1.5 1.5.75 1.5,1.5 .75,1.5 1.5.75 4.5,4.5h.75l.75,1.5h1.5l.75,1.5h.75v.75l1.5.75 .75.75h.75v.75l1.5.75 .75.75h.75l3.75,3.75h.75l1.5.75 2.25,2.25h1.5l1.5,1.5 3,1.5 .75.75h.75l.75.75h.75l.75.75h.75l1.5,1.5h2.25l1.5,1.5h2.25l1.5,1.5h2.25l.75.75h.75l1.5.75h1.5l1.5.75h1.5l1.5.75h1.5l1.5.75h1.5l1.5.75h3l.75.75h5.25l1.5.75h3.75l1.5.75h29.25l1.5-.75h3l2.25-.75h4.5l1.5-.75h1.5l1.5-.75h3.75l3-1.5h3l4.5-2.25h2.25l3-1.5h1.5l3-1.5 2.25-.75 .75-.75 2.25-.75 .75-.75 2.25-.75 .75-.75 2.25-.75 3-1.5 1.5-1.5 6-3 1.5-1.5 1.5-.75 3.75-3.75 1.5-.75 3-3 1.5-.75 .75-1.5 4.5-4.5 .75-1.5 3.75-3.75 1.5-2.25 .75-1.5 1.5-1.5 .75-1.5 1.5-1.5 1.5-3 1.5-1.5 .75-1.5 .75-.75 3-6 .75-.75 2.25-4.5 .75-.75 .75-1.5v-.75l.75-1.5 1.5-1.5v-1.5l.75-1.5 1.5-1.5v-.75l.75-1.5v-.75l.75-.75v-.75l.75-1.5v-1.5l.75-.75v-1.5l.75-.75v-1.5l.75-.75v-1.5l.75-.75v-2.25l.75-.75v-.75l11.25-9.75v.75l-.75.75v1.5l-.75.75v1.5l-.75,1.5v.75l-.75,1.5-.75.75v1.5l-.75,1.5v1.5l-2.25,4.5v1.5l-.75,2.25-1.5,3-.75,2.25-.75,1.5-1.5,4.5-1.5,1.5-1.5,4.5-.75,1.5-1.5,2.25-.75,2.25-1.5,2.25-1.5,1.5-.75,2.25-1.5,2.25-.75,2.25-1.5,2.25-1.5,1.5-4.5,6.75-3.75,3.75-3,4.5-2.25,1.5-1.5,2.25-3.75,3.75-2.25,1.5-1.5,2.25-2.25,2.25-6.75,4.5-2.25,2.25-2.25.75-2.25,1.5-3,1.5-2.25,1.5-1.5,1.5-6.75,2.25-1.5.75-4.5,1.5-2.25,1.5h-2.25l-2.25.75-1.5.75-4.5,1.5h-2.25l-2.25.75-1.5.75h-2.25l-2.25.75h-2.25l-2.25.75h-2.25l-2.25.75h-6l-2.25.75h-24.75l-2.25-.75h-6l-2.25-.75h-1.5l-2.25-.75h-3.75l-1.5-.75h-2.25l-1.5-.75h-1.5l-1.5-.75h-2.25l-1.5-.75h-1.5l-3-1.5h-1.5l-1.5-.75h-1.5l-3-1.5h-1.5l-1.5-.75-.75-.75-3-1.5h-1.5l-1.5-1.5-1.5-.75-.75-.75-7.5-3.75-3.75-3.75-3-1.5-1.5-1.5-3-1.5-.75-1.5-1.5-.75-1.5-1.5-1.5-.75-.75-1.5-1.5-.75-2.25-2.25-1.5-.75-.75-1.5-1.5-.75-.75-1.5-.75-.75-1.5-.75-.75-1.5-4.5-4.5-.75-1.5-.75-.75-.75-1.5-3.75-3.75-.75-1.5-.75-.75-.75-1.5-.75-.75-1.5-3-1.5-.75-.75-1.5-.75-.75-.75-1.5-.75-.75-1.5-3-.75-.75-2.25-4.5-.75-.75-2.25-4.5-.75-.75-.75-2.25-.75-.75v-1.5l-3.75-7.5-.75-.75-.75-1.5v-1.5l-1.5-3v-1.5l-2.25-4.5v-2.25l-.75-.75-.75-2.25v-1.5l-1.5-3v-1.5l-.75-1.5v-1.5l-.75-1.5z" fill="#010101" fill-rule="evenodd"/>
 <path d="m96.75,302.25v7.5h.75l.75.75h.75l.75.75h.75l.75.75h.75l1.5.75h.75l1.5.75h1.5l.75.75h2.25l.75.75h2.25l.75.75h3l.75.75h1.5 1.5l.75.75h5.25l.75.75h5.25l1.5.75h23.25l.75-.75h5.25l.75-.75h5.25l.75-.75h3.75l.75-.75h2.25l1.5-.75h1.5l.75-.75h3l.75-.75 1.5-.75h.75l1.5-.75h.75l.75-.75h1.5l.75-.75h.75v-9.75l7.5-2.25v16.5h-.75l-.75.75h-.75l-.75.75h-.75l-.75.75h-.75l-3,1.5h-.75l-1.5.75h-.75l-.75.75h-1.5l-1.5.75h-.75l-1.5.75h-1.5l-.75.75h-3.75l-.75.75h-2.25l-1.5.75h-2.25l-1.5.75h-3.75l-1.5.75h-10.5l-1.5.75h-9l-1.5-.75h-11.25l-1.5-.75h-4.5l-1.5-.75h-3.75l-1.5-.75h-2.25l-1.5-.75h-3l-1.5-.75h-.75l-.75-.75h-1.5l-.75-.75h-3l-.75-.75h-.75l-.75-.75h-1.5l-.75-.75h-1.5l-1.5-.75h-.75l-.75-.75-1.5-.75h-.75l-.75-.75h-.75l-.75-.75v-16.5z" fill="#010101" fill-rule="evenodd"/>
 <path d="m13.5,204v-.75l-.75-1.5v-3.75l.75-1.5v-1.5l.75-1.5v-.75l.75-1.5 .75-.75 1.5-3 1.5-1.5 .75-1.5 1.5-.75 .75-.75 1.5-.75 1.5-1.5h1.5l.75-.75h1.5 .75l3.75,5.25h-1.5l-1.5.75h-.75l-.75.75-1.5.75h-.75l-2.25,2.25-.75,1.5-1.5,1.5-.75,1.5v.75l-1.5,1.5v3.75l-.75,1.5 .75,1.5v4.5l.75.75v.75z" fill="#010101" fill-rule="evenodd"/>
 <path d="m151.5,187.5 126.75-180 .75-.75h.75l1.5.75h.75l1.5.75 .75,1.5 .75.75v1.5l-129,178.5 6.75,3.75 130.5-181.5v-2.25l-.75-1.5-.75-.75-.75-1.5-.75-.75-.75-1.5-4.5-2.25-1.5-1.5h-.75-.75-.75l-1.5-.75h-4.5l-.75.75-129,183z" fill="#010101" fill-rule="evenodd"/>
 <path d="m120,111h-1.5l-.75-.75-1.5-.75h-.75l-2.25-.75-1.5-.75 4.5-6v.75h1.5l.75.75 1.5.75h.75l1.5.75z" fill="#010101" fill-rule="evenodd"/>
 <path d="m120,122.25h-.75l-.75-.75h-2.25l-.75-.75h-1.5l-.75-.75h-.75l-1.5-.75-1.5-1.5h-.75l1.5-6h.75v.75h1.5v.75h.75l.75.75h2.25l.75.75 1.5.75h.75z" fill="#010101" fill-rule="evenodd"/>
 <path d="m63.75,134.25h6.75l1.5.75-2.25,6h-1.5l-1.5-.75h-6z" fill="#010101" fill-rule="evenodd"/>
 <path d="m69.75,151.5v-.75h-3.75l-.75-.75h-3l-.75-.75h-.75l-1.5-.75v-5.25h1.5l1.5.75h3.75l.75.75h2.25z" fill="#010101" fill-rule="evenodd"/>
 <path d="m57,152.25h3.75l1.5.75 .75.75h1.5l.75.75-6,3.75-.75-.75h-.75l-.75-.75h-1.5l-.75-.75h-.75l-1.5-.75h-3z" fill="#010101" fill-rule="evenodd"/>
 <path d="m45,156.75h3.75l.75.75h1.5l1.5,1.5h.75l.75.75h1.5l-6.75,3.75h-.75l-.75-.75-1.5-.75h-1.5l-.75-.75h-.75l-1.5-.75h-3z" fill="#010101" fill-rule="evenodd"/>
 <path d="m33.75,162.75h1.5l1.5.75h2.25l.75.75h1.5l.75.75 3,1.5-5.25,4.5h-.75v-.75h-.75l-1.5-.75h-.75l-.75-.75h-1.5l-1.5-.75h-.75l-1.5-.75h-1.5z" fill="#010101" fill-rule="evenodd"/>
 <path d="m35.25,180.75h-.75l-1.5-.75h-.75l-1.5-.75h-.75l-1.5-1.5h-1.5l-.75-.75-1.5-.75h-.75l2.25-6h.75l1.5.75 .75.75h1.5l.75.75 1.5.75h.75l.75.75h1.5l1.5.75z" fill="#010101" fill-rule="evenodd"/>
 <path d="m72.75,131.25h-5.25l-.75-.75h-2.25v-6h1.5l.75.75h5.25z" fill="#010101" fill-rule="evenodd"/>
 <path d="m29.25,213v-.75h-.75l-.75-.75-1.5-.75h-.75l-.75-.75v-.75l-1.5-1.5h-.75l-.75-1.5h-.75v-7.5l3,3 1.5.75 .75.75h.75l1.5.75 .75.75z" fill="#010101" fill-rule="evenodd"/>
 <path d="m30,200.25-.75-.75h-.75l-1.5-1.5-1.5-.75-.75-.75h-.75l-1.5-1.5 4.5-5.25 1.5,1.5h.75l1.5.75 1.5,1.5h.75l.75.75z" fill="#010101" fill-rule="evenodd"/>
 <path d="m52.5,245.25h-3.75l-1.5-.75h-.75l-1.5-.75h-1.5l-1.5-.75h-1.5l-6-3-6.75-12v.75l1.5.75h.75l1.5,1.5 4.5,2.25h.75l.75.75h.75l1.5.75 .75.75h.75l.75.75h1.5l.75.75 1.5.75h1.5l.75.75z" fill="#010101" fill-rule="evenodd"/>
 <path d="m80.25,286.5h9l.75-.75 15,10.5h-2.25l-.75-.75h-2.25l-1.5-.75h-2.25l-3-1.5h-1.5l-1.5-.75-.75-.75-3-1.5-.75-.75h-.75l-1.5-.75-.75-.75h-.75z" fill="#010101" fill-rule="evenodd"/>
 <path d="m63,258.75h-6l-1.5-.75h-3l-1.5-.75h-1.5l-1.5-.75h-1.5l-.75-.75-6.75-9 .75.75h1.5l.75.75h.75l1.5.75h3 .75l.75.75h2.25l1.5.75h3l1.5.75z" fill="#010101" fill-rule="evenodd"/>
 <path d="m75,271.5h-12.75l-1.5-.75h-.75l-9-9 .75.75h2.25l.75.75h4.5l.75.75h.75 6.75z" fill="#010101" fill-rule="evenodd"/>
 <path d="m86.25 282h-2.25l-0.75 0.75h-9l-8.25-6.75h12.75z" fill="#010101" fill-rule="evenodd"/>
</svg>
